<svg width="940" height="772" viewBox="0 0 940 772" fill="none" xmlns="http://www.w3.org/2000/svg">
<g clip-path="url(#clip0_38_131)">
<g filter="url(#filter0_d_38_131)">
<path d="M582.203 546.668C574.301 519.748 546.183 503.702 518.98 510.572C507.797 513.402 498.38 519.605 491.532 527.81C486.934 533.321 478.009 531.298 476.15 524.359L457.087 453.216C449.86 426.245 465.869 398.516 492.841 391.289L732.267 327.134C759.239 319.907 786.968 335.917 794.195 362.889L813.258 434.031C815.117 440.97 808.399 447.184 801.656 444.712C791.637 441.034 780.392 440.367 769.302 443.499C742.304 451.132 725.955 479.081 732.554 506.349C739.514 535.136 768.759 552.386 797.202 544.765C808.068 541.854 817.219 535.741 823.917 527.718C828.508 522.209 837.43 524.245 839.288 531.178L858.351 602.321C865.578 629.293 849.573 657.014 822.601 664.241L751.453 683.305C744.513 685.165 738.299 678.446 740.773 671.71C744.454 661.677 745.118 650.419 741.975 639.314C734.318 612.322 706.364 596 679.1 602.617C650.33 609.592 633.108 638.823 640.724 667.248C643.636 678.113 649.743 687.267 657.77 693.956C663.281 698.554 661.239 707.478 654.311 709.334L583.163 728.398C556.191 735.625 528.47 719.62 521.243 692.649L502.18 621.506C500.324 614.579 507.032 608.348 513.768 610.822C523.573 614.423 534.556 615.141 545.421 612.23C573.846 604.613 590.547 575.071 582.203 546.668Z" fill="url(#paint0_linear_38_131)"/>
<path d="M734.856 336.794L495.429 400.948C473.792 406.746 460.949 428.991 466.746 450.628L485.271 519.764C493.29 510.806 503.988 504.05 516.527 500.878L516.531 500.877C548.939 492.691 582.381 511.77 591.798 543.85C601.728 577.653 581.847 612.822 548.01 621.889C535.842 625.149 523.524 624.581 512.376 620.922L530.902 690.06C536.7 711.698 558.938 724.537 580.575 718.739L649.719 700.212C640.968 692.385 634.324 682 631.065 669.836C621.999 636.002 642.499 601.202 676.742 592.898C709.232 585.013 742.474 604.427 751.596 636.584L751.597 636.59C755.121 649.041 754.619 661.685 750.87 673.109L820.013 654.582C841.65 648.784 854.489 626.546 848.692 604.909L830.167 535.773C822.338 544.513 811.958 551.164 799.79 554.425C766.198 563.425 731.662 543.281 723.033 509.5L722.833 508.699C714.971 476.203 734.416 442.97 766.581 433.876L766.584 433.875C779.02 430.363 791.652 430.87 803.062 434.617L784.536 365.476C778.738 343.84 756.493 330.996 734.856 336.794Z" stroke="white" stroke-width="20"/>
</g>
<g filter="url(#filter1_d_38_131)">
<path d="M70.5393 389.864C78.3868 365.475 104.431 351.483 129.104 358.39C139.247 361.234 147.698 367.117 153.757 374.767C157.829 379.906 166.022 378.268 167.881 371.976L186.945 307.476C194.172 283.022 219.859 269.055 244.316 276.283L461.391 340.442C485.845 347.669 499.81 373.351 492.583 397.804L473.517 462.31C471.658 468.602 463.465 470.24 459.393 465.101C453.334 457.451 444.885 451.569 434.741 448.725C410.068 441.817 384.025 455.809 376.178 480.198C367.898 505.933 382.457 533.292 408.23 540.91C418.078 543.821 428.12 543.421 437.159 540.364C443.365 538.263 449.341 544.107 447.485 550.388L428.421 614.888C421.194 639.342 395.512 653.304 371.057 646.077L306.557 627.013C300.275 625.156 294.432 631.135 296.533 637.342C299.596 646.379 299.994 656.421 297.081 666.278C289.461 692.059 262.084 706.616 236.34 698.315C211.954 690.456 197.982 664.4 204.906 639.733C207.75 629.601 213.629 621.16 221.27 615.109C226.412 611.037 224.774 602.841 218.484 600.982L153.982 581.918C129.525 574.69 115.559 549.002 122.787 524.549L141.849 460.054C143.705 453.773 137.728 447.929 131.522 450.03C122.483 453.087 112.442 453.487 102.591 450.575C76.8204 442.959 62.2641 415.6 70.5393 389.864Z" fill="url(#paint1_linear_38_131)"/>
<path d="M458.556 350.032L241.482 285.873C222.321 280.21 202.197 291.153 196.535 310.31L177.471 374.811C173.352 388.745 155.105 392.57 145.919 380.978L145.917 380.976C141.127 374.927 134.454 370.276 126.408 368.019L126.407 368.02C107.212 362.646 86.9048 373.314 80.3604 392.029L80.0584 392.927C73.507 413.305 85.0301 434.957 105.425 440.985C112.991 443.221 120.672 442.993 127.646 440.778L128.318 440.558C142.364 435.804 155.543 449.003 151.439 462.888L132.377 527.383C126.715 546.54 137.656 566.665 156.817 572.328L221.318 591.392C235.258 595.512 239.071 613.766 227.479 622.948L227.478 622.949C221.625 627.583 217.081 633.984 214.752 641.686L214.533 642.435C209.061 661.934 220.142 682.589 239.408 688.797L239.41 688.798C259.793 695.37 281.459 683.849 287.491 663.444C289.801 655.627 289.483 647.696 287.062 640.552L287.061 640.548C282.309 626.507 295.498 613.317 309.392 617.423L373.891 636.487C393.05 642.149 413.17 631.21 418.832 612.054L436.911 550.882C426.908 553.586 416.048 553.648 405.395 550.499C374.249 541.294 356.654 508.229 366.659 477.135C376.152 447.628 407.593 430.739 437.437 439.095L437.441 439.096C448.439 442.179 457.809 448.238 464.912 456.145L482.993 394.97C488.655 375.813 477.714 355.694 458.556 350.032Z" stroke="white" stroke-width="20"/>
</g>
<g filter="url(#filter2_d_38_131)">
<path d="M708.683 363.484C700.599 387.003 712.702 413.026 735.902 422.014C745.438 425.709 755.429 426.058 764.582 423.644C770.741 422.023 776.158 428.068 773.941 434.034L751.199 495.255C742.58 518.459 716.77 530.285 693.552 521.661L632.303 498.908C626.334 496.691 620.289 502.105 621.912 508.263C624.331 517.408 623.983 527.384 620.296 536.912C611.324 560.114 585.297 572.225 561.762 564.14C536.91 555.608 524.103 528.348 533.196 503.869C536.669 494.52 542.822 486.948 550.468 481.705C555.714 478.111 554.657 470.065 548.688 467.847L487.449 445.099C464.231 436.474 452.397 410.663 461.02 387.45L483.758 326.239C485.976 320.268 494.024 319.23 497.631 324.479C502.985 332.276 510.771 338.53 520.394 341.958C543.83 350.311 569.998 338.518 579.245 315.43C589.01 291.042 576.713 263.531 552.225 254.434C542.872 250.96 533.114 250.68 524.149 253.046C518 254.67 512.594 248.612 514.809 242.651L537.549 181.435C546.17 158.227 571.986 146.402 595.203 155.027L656.442 177.776C662.416 179.995 668.461 174.581 666.838 168.423C664.42 159.26 664.767 149.272 668.464 139.73C677.467 116.54 703.507 104.457 727.035 112.563C751.859 121.12 764.64 148.358 755.554 172.816C752.081 182.166 745.928 189.738 738.284 194.975C733.037 198.575 734.099 206.623 740.062 208.838L801.307 231.589C824.524 240.213 836.355 266.017 827.734 289.226L804.992 350.447C802.778 356.408 794.728 357.467 791.126 352.22C785.885 344.577 778.311 338.419 768.958 334.945C744.48 325.852 717.215 338.649 708.683 363.484Z" fill="url(#paint2_linear_38_131)"/>
<path d="M565.009 554.682L565.01 554.683C583.463 561.021 603.936 551.494 610.969 533.306L610.97 533.304C613.872 525.801 614.14 517.987 612.245 510.819L612.242 510.811C608.522 496.695 622.341 484.54 635.785 489.534L697.035 512.286C715.077 518.989 735.129 509.797 741.825 491.773L763.212 434.199C753.542 436.026 743.263 435.352 733.374 431.747L732.29 431.338C704.085 420.411 689.395 388.84 699.226 360.235C709.589 330.068 742.71 314.527 772.44 325.571C782.433 329.283 790.772 335.536 796.971 343.321L818.36 285.743C825.056 267.715 815.868 247.665 797.824 240.963L736.579 218.212C723.185 213.236 720.552 195.013 732.628 186.729L732.632 186.726C738.624 182.621 743.447 176.691 746.18 169.334C753.314 150.13 743.282 128.741 723.777 122.017L723.778 122.018C705.33 115.662 684.844 125.168 677.786 143.349C674.877 150.859 674.61 158.683 676.507 165.872L676.508 165.874C680.23 179.996 666.404 192.143 652.96 187.149L591.721 164.401C573.677 157.698 553.62 166.89 546.923 184.918L525.537 242.488C535.317 240.641 545.713 241.348 555.706 245.06C585.448 256.108 600.39 289.524 588.528 319.147L588.528 319.148C577.282 347.228 545.529 361.533 517.037 351.378L517.038 351.378C506.724 347.704 498.129 341.338 491.778 333.367L470.394 390.932C463.695 408.965 472.889 429.022 490.931 435.724L552.171 458.473C565.359 463.373 568.117 481.109 556.676 489.559L556.12 489.955C550.125 494.066 545.302 499.996 542.57 507.351C535.429 526.573 545.486 547.979 565.009 554.682Z" stroke="white" stroke-width="20"/>
</g>
<g filter="url(#filter3_d_38_131)">
<path d="M263.927 212.699C278.661 192.663 274.874 164.214 255.413 148.713C247.414 142.341 237.983 139.027 228.526 138.6C222.164 138.309 218.798 130.923 222.693 125.89L262.666 74.2438C277.817 54.6693 305.98 51.0826 325.566 66.242L377.237 106.234C382.272 110.131 389.657 106.767 389.945 100.406C390.366 90.9552 393.674 81.5379 400.036 73.5433C415.522 54.0754 443.977 50.2826 464.029 65.0214C485.202 80.5799 489.293 110.419 473.309 131.07C467.205 138.958 459.073 144.349 450.211 147.071C444.132 148.937 442.739 156.932 447.774 160.829L499.436 200.814C519.023 215.973 522.617 244.139 507.46 263.723L467.493 315.36C463.595 320.398 455.604 318.986 453.727 312.9C450.944 303.861 445.379 295.569 437.217 289.426C417.341 274.46 388.846 277.908 373.131 297.185C356.534 317.549 360.062 347.476 380.721 363.465C388.611 369.572 397.841 372.751 407.103 373.167C413.456 373.451 416.808 380.847 412.916 385.875L372.946 437.518C357.793 457.096 329.625 460.68 310.039 445.52L258.377 405.535C253.338 401.635 245.953 404.998 245.664 411.36C245.238 420.827 241.927 430.256 235.551 438.261C220.039 457.708 191.579 461.47 171.542 446.714C150.402 431.139 146.33 401.329 162.3 380.695C168.405 372.808 176.537 367.417 185.395 364.699C191.478 362.829 192.866 354.831 187.835 350.937L136.169 310.948C116.582 295.789 112.989 267.631 128.143 248.052L168.116 196.405C172.008 191.377 180.008 192.767 181.88 198.85C184.602 207.708 189.993 215.846 197.883 221.953C218.533 237.936 248.374 233.857 263.927 212.699Z" fill="url(#paint3_linear_38_131)"/>
<path d="M263.927 212.699C278.661 192.663 274.874 164.214 255.413 148.713C247.414 142.341 237.983 139.027 228.526 138.6C222.164 138.309 218.798 130.923 222.693 125.89L262.666 74.2438C277.817 54.6693 305.98 51.0826 325.566 66.242L377.237 106.234C382.272 110.131 389.657 106.767 389.945 100.406C390.366 90.9552 393.674 81.5379 400.036 73.5433C415.522 54.0754 443.977 50.2826 464.029 65.0214C485.202 80.5799 489.293 110.419 473.309 131.07C467.205 138.958 459.073 144.349 450.211 147.071C444.132 148.937 442.739 156.932 447.774 160.829L499.436 200.814C519.023 215.973 522.617 244.139 507.46 263.723L467.493 315.36C463.595 320.398 455.604 318.986 453.727 312.9C450.944 303.861 445.379 295.569 437.217 289.426C417.341 274.46 388.846 277.908 373.131 297.185C356.534 317.549 360.062 347.476 380.721 363.465C388.611 369.572 397.841 372.751 407.103 373.167C413.456 373.451 416.808 380.847 412.916 385.875L372.946 437.518C357.793 457.096 329.625 460.68 310.039 445.52L258.377 405.535C253.338 401.635 245.953 404.998 245.664 411.36C245.238 420.827 241.927 430.256 235.551 438.261C220.039 457.708 191.579 461.47 171.542 446.714C150.402 431.139 146.33 401.329 162.3 380.695C168.405 372.808 176.537 367.417 185.395 364.699C191.478 362.829 192.866 354.831 187.835 350.937L136.169 310.948C116.582 295.789 112.989 267.631 128.143 248.052L168.116 196.405C172.008 191.377 180.008 192.767 181.88 198.85C184.602 207.708 189.993 215.846 197.883 221.953C218.533 237.936 248.374 233.857 263.927 212.699Z" fill="url(#paint4_linear_38_131)"/>
<path d="M458.107 73.0796L458.106 73.079C442.385 61.5228 420.002 64.5078 407.862 79.7687L407.861 79.7703C402.852 86.0649 400.265 93.4438 399.935 100.85L399.935 100.859C399.274 115.442 382.457 122.92 371.116 114.142L319.446 74.1502C304.225 62.3696 282.343 65.1599 270.575 80.3643L232.982 128.935C242.757 130.076 252.367 133.787 260.73 140.178L261.643 140.891C285.302 159.737 289.903 194.253 271.985 218.621C253.092 244.322 216.843 249.272 191.763 229.861C183.332 223.336 177.24 214.88 173.645 205.6L136.051 254.173C124.28 269.381 127.068 291.26 142.289 303.041L193.956 343.029C205.255 351.775 202.331 369.954 188.333 374.257L188.328 374.259C181.384 376.389 175.012 380.61 170.208 386.816C157.67 403.017 160.863 426.424 177.472 438.662L177.471 438.661C193.183 450.232 215.572 447.272 227.733 432.025C232.75 425.725 235.34 418.337 235.675 410.91L235.674 410.907C236.336 396.318 253.157 388.85 264.497 397.627L316.159 437.612C331.381 449.394 353.268 446.605 365.039 431.396L402.628 382.83C392.743 381.675 383.031 377.898 374.601 371.373C349.51 351.954 345.22 315.602 365.38 290.868L365.38 290.867C384.493 267.422 419.067 263.243 443.231 281.437L443.231 281.436C451.979 288.021 458.283 296.661 461.966 306.164L499.552 257.602C511.327 242.389 508.537 220.503 493.316 208.722L441.654 168.737C430.528 160.125 433.187 142.374 446.629 137.723L447.277 137.511C454.226 135.375 460.599 131.155 465.401 124.95C477.952 108.734 474.741 85.3025 458.107 73.0796Z" stroke="white" stroke-width="20"/>
</g>
<g filter="url(#filter4_d_38_131)">
<path d="M780.983 402.745C781.76 435.485 755.456 462.27 722.902 462.27C710.459 462.27 698.931 458.358 689.48 451.703C682.992 447.131 674.042 451.868 674.042 459.802V541.279C674.042 572.162 649 597.208 618.11 597.208H536.625C528.679 597.208 523.963 606.167 528.538 612.657C535.337 622.316 539.268 634.141 539.094 646.888C538.668 677.922 513.49 703.395 482.461 704.151C449.704 704.955 422.898 678.644 422.898 646.07C422.898 633.626 426.809 622.096 433.469 612.643C438.041 606.16 433.307 597.208 425.371 597.208H343.894C313.004 597.208 287.963 572.162 287.963 541.279V459.795C287.963 451.847 279.006 447.138 272.509 451.71C262.858 458.503 251.045 462.435 238.302 462.263C207.272 461.851 181.801 436.688 181.019 405.667C180.194 372.9 206.516 346.067 239.097 346.067C251.542 346.067 263.072 349.979 272.524 356.641C279.012 361.213 287.963 356.476 287.963 348.542V267.065C287.963 236.175 313.007 211.129 343.901 211.129H425.369C433.305 211.129 438.039 202.177 433.468 195.687C426.81 186.234 422.898 174.711 422.898 162.267C422.898 129.713 449.685 103.402 482.426 104.186C513.454 104.928 538.647 130.38 539.093 161.414C539.277 174.175 535.343 186.014 528.538 195.673C523.964 202.17 528.683 211.129 536.627 211.129H618.103C648.997 211.129 674.042 236.175 674.042 267.065V348.542C674.042 356.483 682.997 361.206 689.492 356.634C699.157 349.827 710.995 345.895 723.755 346.074C754.789 346.52 780.241 371.718 780.983 402.745Z" fill="url(#paint5_linear_38_131)"/>
<path d="M432.899 646.07C432.899 673.039 455.09 694.82 482.215 694.154H482.217C507.667 693.534 528.416 672.745 529.083 647.351L529.095 646.751C529.235 636.51 526.187 627.017 520.881 619.167L520.36 618.413C511.044 605.187 520.713 587.208 536.625 587.208H618.11C643.477 587.208 664.042 566.639 664.042 541.279V459.802C664.042 443.939 681.982 434.191 695.236 443.527L695.237 443.526C703.059 449.034 712.587 452.27 722.902 452.27C749.851 452.27 771.629 430.098 770.986 402.984C770.377 377.533 749.604 356.769 724.212 356.085L723.611 356.072C713.029 355.925 703.245 359.179 695.25 364.809L695.248 364.811L694.624 365.234C681.457 373.822 664.042 364.197 664.042 348.542V267.064C664.042 241.698 643.475 221.129 618.104 221.129H536.627C520.709 221.129 511.05 203.144 520.36 189.917L520.363 189.914C525.992 181.925 529.246 172.14 529.094 161.558C528.725 135.894 507.838 114.796 482.187 114.182C455.074 113.533 432.899 135.317 432.899 162.267C432.899 172.26 435.934 181.509 441.134 189.19L441.644 189.929C450.977 203.18 441.242 221.129 425.368 221.129H343.901C318.53 221.129 297.963 241.697 297.963 267.064V348.542C297.963 364.406 280.018 374.155 266.764 364.815L266.763 364.814C258.942 359.302 249.414 356.066 239.097 356.066C212.124 356.066 190.333 378.281 191.016 405.415C191.662 431.062 212.776 451.923 238.436 452.265H238.438C249.003 452.407 258.767 449.153 266.753 443.532H266.754C279.971 434.232 297.963 443.861 297.963 459.795V541.279C297.963 566.64 318.527 587.208 343.895 587.208H425.37C441.235 587.208 450.987 605.154 441.642 618.406H441.641C436.131 626.227 432.899 635.756 432.899 646.07Z" stroke="white" stroke-width="20"/>
</g>
<path d="M443.869 374.041H481.467C480.965 384.926 478.029 394.523 472.658 402.83C467.287 411.137 459.839 417.618 450.314 422.273C440.861 426.857 429.689 429.148 416.799 429.148C406.343 429.148 396.997 427.394 388.762 423.885C380.598 420.376 373.651 415.327 367.922 408.738C362.264 402.15 357.932 394.165 354.924 384.783C351.988 375.402 350.52 364.839 350.52 353.094V344.607C350.52 332.863 352.059 322.299 355.139 312.918C358.29 303.465 362.73 295.444 368.459 288.855C374.26 282.195 381.206 277.111 389.299 273.602C397.391 270.092 406.379 268.338 416.262 268.338C429.868 268.338 441.363 270.773 450.744 275.643C460.126 280.512 467.395 287.208 472.551 295.73C477.707 304.181 480.751 313.813 481.682 324.627H444.084C443.941 318.755 442.938 313.849 441.076 309.91C439.214 305.9 436.278 302.892 432.268 300.887C428.257 298.882 422.922 297.879 416.262 297.879C411.607 297.879 407.561 298.738 404.123 300.457C400.686 302.176 397.821 304.897 395.529 308.621C393.238 312.345 391.519 317.179 390.373 323.123C389.299 328.995 388.762 336.085 388.762 344.393V353.094C388.762 361.401 389.263 368.491 390.266 374.363C391.268 380.236 392.88 385.034 395.1 388.758C397.32 392.482 400.184 395.239 403.693 397.029C407.274 398.748 411.643 399.607 416.799 399.607C422.528 399.607 427.362 398.712 431.301 396.922C435.24 395.06 438.283 392.267 440.432 388.543C442.58 384.747 443.726 379.913 443.869 374.041Z" fill="black"/>
<path d="M555.336 488.934H516.449V459.822H555.336C560.635 459.822 564.932 458.927 568.227 457.137C571.521 455.346 573.92 452.876 575.424 449.725C576.999 446.502 577.787 442.885 577.787 438.875C577.787 434.578 576.999 430.604 575.424 426.951C573.92 423.299 571.521 420.363 568.227 418.143C564.932 415.851 560.635 414.705 555.336 414.705H530.629V542H492.924V385.594H555.336C567.868 385.594 578.646 387.885 587.67 392.469C596.765 397.052 603.747 403.354 608.617 411.375C613.487 419.324 615.922 428.419 615.922 438.66C615.922 448.758 613.487 457.566 608.617 465.086C603.747 472.605 596.765 478.478 587.67 482.703C578.646 486.857 567.868 488.934 555.336 488.934Z" fill="black"/>
</g>
<defs>
<filter id="filter0_d_38_131" x="455.352" y="325.399" width="424.734" height="424.734" filterUnits="userSpaceOnUse" color-interpolation-filters="sRGB">
<feFlood flood-opacity="0" result="BackgroundImageFix"/>
<feColorMatrix in="SourceAlpha" type="matrix" values="0 0 0 0 0 0 0 0 0 0 0 0 0 0 0 0 0 0 127 0" result="hardAlpha"/>
<feOffset dx="12" dy="12"/>
<feGaussianBlur stdDeviation="4"/>
<feComposite in2="hardAlpha" operator="out"/>
<feColorMatrix type="matrix" values="0 0 0 0 0 0 0 0 0 0 0 0 0 0 0 0 0 0 0.25 0"/>
<feBlend mode="normal" in2="BackgroundImageFix" result="effect1_dropShadow_38_131"/>
<feBlend mode="normal" in="SourceGraphic" in2="effect1_dropShadow_38_131" result="shape"/>
</filter>
<filter id="filter1_d_38_131" x="48.2155" y="274.377" width="446.273" height="446.274" filterUnits="userSpaceOnUse" color-interpolation-filters="sRGB">
<feFlood flood-opacity="0" result="BackgroundImageFix"/>
<feColorMatrix in="SourceAlpha" type="matrix" values="0 0 0 0 0 0 0 0 0 0 0 0 0 0 0 0 0 0 127 0" result="hardAlpha"/>
<feOffset dx="-12" dy="12"/>
<feGaussianBlur stdDeviation="4"/>
<feComposite in2="hardAlpha" operator="out"/>
<feColorMatrix type="matrix" values="0 0 0 0 0 0 0 0 0 0 0 0 0 0 0 0 0 0 0.25 0"/>
<feBlend mode="normal" in2="BackgroundImageFix" result="effect1_dropShadow_38_131"/>
<feBlend mode="normal" in="SourceGraphic" in2="effect1_dropShadow_38_131" result="shape"/>
</filter>
<filter id="filter2_d_38_131" x="458.202" y="90.0429" width="392.349" height="476.603" filterUnits="userSpaceOnUse" color-interpolation-filters="sRGB">
<feFlood flood-opacity="0" result="BackgroundImageFix"/>
<feColorMatrix in="SourceAlpha" type="matrix" values="0 0 0 0 0 0 0 0 0 0 0 0 0 0 0 0 0 0 127 0" result="hardAlpha"/>
<feOffset dx="12" dy="-12"/>
<feGaussianBlur stdDeviation="4"/>
<feComposite in2="hardAlpha" operator="out"/>
<feColorMatrix type="matrix" values="0 0 0 0 0 0 0 0 0 0 0 0 0 0 0 0 0 0 0.25 0"/>
<feBlend mode="normal" in2="BackgroundImageFix" result="effect1_dropShadow_38_131"/>
<feBlend mode="normal" in="SourceGraphic" in2="effect1_dropShadow_38_131" result="shape"/>
</filter>
<filter id="filter3_d_38_131" x="98.7656" y="36.0413" width="418.074" height="419.679" filterUnits="userSpaceOnUse" color-interpolation-filters="sRGB">
<feFlood flood-opacity="0" result="BackgroundImageFix"/>
<feColorMatrix in="SourceAlpha" type="matrix" values="0 0 0 0 0 0 0 0 0 0 0 0 0 0 0 0 0 0 127 0" result="hardAlpha"/>
<feOffset dx="-12" dy="-12"/>
<feGaussianBlur stdDeviation="4"/>
<feComposite in2="hardAlpha" operator="out"/>
<feColorMatrix type="matrix" values="0 0 0 0 0 0 0 0 0 0 0 0 0 0 0 0 0 0 0.25 0"/>
<feBlend mode="normal" in2="BackgroundImageFix" result="effect1_dropShadow_38_131"/>
<feBlend mode="normal" in="SourceGraphic" in2="effect1_dropShadow_38_131" result="shape"/>
</filter>
<filter id="filter4_d_38_131" x="181" y="104.169" width="620" height="620" filterUnits="userSpaceOnUse" color-interpolation-filters="sRGB">
<feFlood flood-opacity="0" result="BackgroundImageFix"/>
<feColorMatrix in="SourceAlpha" type="matrix" values="0 0 0 0 0 0 0 0 0 0 0 0 0 0 0 0 0 0 127 0" result="hardAlpha"/>
<feOffset dx="12" dy="12"/>
<feGaussianBlur stdDeviation="4"/>
<feComposite in2="hardAlpha" operator="out"/>
<feColorMatrix type="matrix" values="0 0 0 0 0 0 0 0 0 0 0 0 0 0 0 0 0 0 0.25 0"/>
<feBlend mode="normal" in2="BackgroundImageFix" result="effect1_dropShadow_38_131"/>
<feBlend mode="normal" in="SourceGraphic" in2="effect1_dropShadow_38_131" result="shape"/>
</filter>
<linearGradient id="paint0_linear_38_131" x1="826.272" y1="482.602" x2="489.164" y2="572.93" gradientUnits="userSpaceOnUse">
<stop stop-color="#77797A"/>
<stop offset="0.306923" stop-color="#BAB9B7"/>
<stop offset="0.756389" stop-color="#707070"/>
<stop offset="1" stop-color="#919292"/>
</linearGradient>
<linearGradient id="paint1_linear_38_131" x1="57.6799" y1="433.323" x2="447.989" y2="548.683" gradientUnits="userSpaceOnUse">
<stop stop-color="#FF6C04"/>
<stop offset="0.908654" stop-color="#B5B5B5"/>
<stop offset="1" stop-color="#D7D6D4"/>
</linearGradient>
<linearGradient id="paint2_linear_38_131" x1="499.283" y1="284.446" x2="789.466" y2="392.241" gradientUnits="userSpaceOnUse">
<stop stop-color="#77797A"/>
<stop offset="0.306923" stop-color="#BAB9B7"/>
<stop offset="0.756389" stop-color="#787878"/>
<stop offset="1" stop-color="#919292"/>
</linearGradient>
<linearGradient id="paint3_linear_38_131" x1="440.205" y1="350.617" x2="195.405" y2="161.147" gradientUnits="userSpaceOnUse">
<stop stop-color="#77797A"/>
<stop offset="0.306923" stop-color="#BAB9B7"/>
<stop offset="0.756389"/>
<stop offset="1" stop-color="#919292"/>
</linearGradient>
<linearGradient id="paint4_linear_38_131" x1="195.405" y1="161.147" x2="440.205" y2="350.617" gradientUnits="userSpaceOnUse">
<stop stop-color="#FF6C04"/>
<stop offset="0.908654" stop-color="#B5B5B5"/>
<stop offset="1" stop-color="#D7D6D4"/>
</linearGradient>
<linearGradient id="paint5_linear_38_131" x1="181" y1="404.169" x2="781" y2="404.169" gradientUnits="userSpaceOnUse">
<stop stop-color="#929393"/>
<stop offset="0.0123998" stop-color="#FF6C04"/>
<stop offset="0.202064" stop-color="#CBCBC8"/>
<stop offset="0.526731" stop-color="#909191"/>
<stop offset="0.826543" stop-color="#BAB9B7"/>
<stop offset="1" stop-color="#848586"/>
</linearGradient>
<clipPath id="clip0_38_131">
<rect width="940" height="772" fill="white"/>
</clipPath>
</defs>
</svg>
