<svg width="400" height="400" viewBox="0 0 400 400" fill="none" xmlns="http://www.w3.org/2000/svg">
<path d="M200.962 399.488C221.379 398.99 237.949 382.227 238.229 361.806C238.344 353.417 235.757 345.636 231.283 339.28C227.996 334.617 231.388 328.193 237.083 328.193H291.406C311.723 328.193 328.194 311.72 328.194 291.407V237.089C328.194 231.403 334.61 227.995 339.273 231.281L339.274 231.28C345.494 235.66 353.079 238.234 361.269 238.234C382.691 238.234 400.001 220.607 399.489 199.062C399 178.646 382.25 162.064 361.829 161.77C353.431 161.652 345.642 164.24 339.282 168.719C334.615 172.004 328.194 168.607 328.194 162.915V108.597C328.194 88.2799 311.722 71.8068 291.402 71.8066H237.085C231.39 71.8066 227.997 65.3827 231.283 60.7148C235.761 54.3587 238.349 46.5687 238.229 38.1709C237.935 17.7499 221.355 0.999338 200.938 0.510742C179.393 -0.00503069 161.766 17.3101 161.766 38.7324C161.766 46.9218 164.339 54.5039 168.721 60.7246C172.006 65.3894 168.6 71.8066 162.912 71.8066H108.601C88.281 71.8067 71.8089 88.2798 71.8086 108.597V162.915C71.8086 168.601 65.3912 172.01 60.7275 168.724C54.5079 164.34 46.9219 161.766 38.7314 161.766C17.2911 161.766 -0.0302221 179.423 0.512695 200.986C1.02708 221.398 17.7894 237.958 38.208 238.229C46.332 238.339 53.8807 235.914 60.1182 231.698L60.7178 231.285C65.385 228.001 71.8084 231.386 71.8086 237.084V291.407C71.8088 311.719 88.2785 328.193 108.596 328.193H162.914C168.601 328.194 172.008 334.61 168.722 339.271C164.339 345.491 161.766 353.078 161.766 361.268C161.766 382.703 179.406 400.018 200.962 399.488Z" stroke="black"/>
</svg>
