<svg width="419" height="420" viewBox="0 0 419 420" fill="none" xmlns="http://www.w3.org/2000/svg">
<g filter="url(#filter0_d_41_132)">
<path d="M165.692 176.699C180.426 156.663 176.639 128.214 157.178 112.713C149.179 106.341 139.747 103.027 130.291 102.6C123.929 102.309 120.562 94.9233 124.458 89.8902L164.431 38.2438C179.581 18.6693 207.745 15.0826 227.331 30.242L279.002 70.2339C284.037 74.1309 291.422 70.7675 291.71 64.4058C292.131 54.9552 295.439 45.5379 301.801 37.5433C317.287 18.0754 345.742 14.2826 365.793 29.0214C386.967 44.5799 391.057 74.4195 375.074 95.0702C368.969 102.958 360.837 108.349 351.976 111.071C345.896 112.937 344.504 120.932 349.539 124.829L401.201 164.814C420.788 179.973 424.382 208.139 409.225 227.723L369.258 279.36C365.359 284.398 357.369 282.986 355.492 276.9C352.708 267.861 347.144 259.569 338.982 253.426C319.106 238.46 290.611 241.908 274.896 261.185C258.299 281.549 261.827 311.476 282.485 327.465C290.376 333.572 299.605 336.751 308.868 337.167C315.221 337.451 318.573 344.847 314.681 349.875L274.711 401.518C259.558 421.096 231.39 424.68 211.804 409.52L160.142 369.535C155.102 365.635 147.717 368.998 147.429 375.36C147.003 384.827 143.692 394.256 137.315 402.261C121.803 421.708 93.3442 425.47 73.3064 410.714C52.1664 395.139 48.0952 365.329 64.065 344.695C70.1696 336.808 78.3017 331.417 87.1599 328.699C93.2427 326.829 94.6304 318.831 89.5997 314.937L37.9335 274.948C18.3472 259.789 14.754 231.631 29.9076 212.052L69.8808 160.405C73.7729 155.377 81.7725 156.767 83.6448 162.85C86.3663 171.708 91.7578 179.846 99.6481 185.953C120.298 201.936 150.139 197.857 165.692 176.699Z" fill="url(#paint0_linear_41_132)"/>
<path d="M165.692 176.699C180.426 156.663 176.639 128.214 157.178 112.713C149.179 106.341 139.747 103.027 130.291 102.6C123.929 102.309 120.562 94.9233 124.458 89.8902L164.431 38.2438C179.581 18.6693 207.745 15.0826 227.331 30.242L279.002 70.2339C284.037 74.1309 291.422 70.7675 291.71 64.4058C292.131 54.9552 295.439 45.5379 301.801 37.5433C317.287 18.0754 345.742 14.2826 365.793 29.0214C386.967 44.5799 391.057 74.4195 375.074 95.0702C368.969 102.958 360.837 108.349 351.976 111.071C345.896 112.937 344.504 120.932 349.539 124.829L401.201 164.814C420.788 179.973 424.382 208.139 409.225 227.723L369.258 279.36C365.359 284.398 357.369 282.986 355.492 276.9C352.708 267.861 347.144 259.569 338.982 253.426C319.106 238.46 290.611 241.908 274.896 261.185C258.299 281.549 261.827 311.476 282.485 327.465C290.376 333.572 299.605 336.751 308.868 337.167C315.221 337.451 318.573 344.847 314.681 349.875L274.711 401.518C259.558 421.096 231.39 424.68 211.804 409.52L160.142 369.535C155.102 365.635 147.717 368.998 147.429 375.36C147.003 384.827 143.692 394.256 137.315 402.261C121.803 421.708 93.3442 425.47 73.3064 410.714C52.1664 395.139 48.0952 365.329 64.065 344.695C70.1696 336.808 78.3017 331.417 87.1599 328.699C93.2427 326.829 94.6304 318.831 89.5997 314.937L37.9335 274.948C18.3472 259.789 14.754 231.631 29.9076 212.052L69.8808 160.405C73.7729 155.377 81.7725 156.767 83.6448 162.85C86.3663 171.708 91.7578 179.846 99.6481 185.953C120.298 201.936 150.139 197.857 165.692 176.699Z" fill="url(#paint1_linear_41_132)"/>
<path d="M359.872 37.0796L359.871 37.079C344.15 25.5228 321.767 28.5078 309.627 43.7687L309.626 43.7703C304.617 50.0649 302.03 57.4438 301.7 64.8505L301.7 64.8589C301.039 79.4415 284.222 86.92 272.881 78.142L221.21 38.1502C205.989 26.3696 184.108 29.1599 172.34 44.3643L134.747 92.9348C144.522 94.0764 154.132 97.7866 162.494 104.178L163.408 104.891C187.067 123.737 191.668 158.253 173.749 182.621C154.857 208.322 118.608 213.272 93.5277 193.861C85.0971 187.336 79.0043 178.88 75.4102 169.6L37.816 218.173C26.045 233.381 28.8324 255.26 44.0541 267.041L95.7206 307.029C107.02 315.775 104.096 333.954 90.0978 338.257L90.0931 338.259C83.1492 340.389 76.7765 344.61 71.9728 350.816C59.4343 367.017 62.6275 390.424 79.2369 402.662L79.2361 402.661C94.948 414.232 117.337 411.272 129.498 396.025C134.515 389.725 137.105 382.337 137.44 374.91L137.439 374.907C138.1 360.318 154.921 352.85 166.262 361.627L217.924 401.612C233.146 413.394 255.032 410.605 266.803 395.396L304.393 346.83C294.508 345.675 284.796 341.898 276.365 335.373C251.275 315.954 246.985 279.602 267.145 254.868L267.145 254.867C286.258 231.422 320.832 227.243 344.996 245.437L344.995 245.436C353.744 252.021 360.047 260.661 363.731 270.164L401.316 221.602C413.091 206.389 410.301 184.503 395.08 172.722L343.418 132.737C332.292 124.125 334.952 106.374 348.394 101.723L349.042 101.511C355.991 99.3753 362.364 95.1551 367.166 88.9499C379.717 72.734 376.506 49.3025 359.872 37.0796Z" stroke="white" stroke-width="20"/>
</g>
<defs>
<filter id="filter0_d_41_132" x="0.530396" y="0.0412598" width="418.074" height="419.679" filterUnits="userSpaceOnUse" color-interpolation-filters="sRGB">
<feFlood flood-opacity="0" result="BackgroundImageFix"/>
<feColorMatrix in="SourceAlpha" type="matrix" values="0 0 0 0 0 0 0 0 0 0 0 0 0 0 0 0 0 0 127 0" result="hardAlpha"/>
<feOffset dx="-12" dy="-12"/>
<feGaussianBlur stdDeviation="4"/>
<feComposite in2="hardAlpha" operator="out"/>
<feColorMatrix type="matrix" values="0 0 0 0 0 0 0 0 0 0 0 0 0 0 0 0 0 0 0.25 0"/>
<feBlend mode="normal" in2="BackgroundImageFix" result="effect1_dropShadow_41_132"/>
<feBlend mode="normal" in="SourceGraphic" in2="effect1_dropShadow_41_132" result="shape"/>
</filter>
<linearGradient id="paint0_linear_41_132" x1="341.97" y1="314.617" x2="97.1698" y2="125.147" gradientUnits="userSpaceOnUse">
<stop stop-color="#77797A"/>
<stop offset="0.306923" stop-color="#BAB9B7"/>
<stop offset="0.756389"/>
<stop offset="1" stop-color="#919292"/>
</linearGradient>
<linearGradient id="paint1_linear_41_132" x1="97.1698" y1="125.147" x2="341.97" y2="314.617" gradientUnits="userSpaceOnUse">
<stop stop-color="#FF6C04"/>
<stop offset="0.908654" stop-color="#B5B5B5"/>
<stop offset="1" stop-color="#D7D6D4"/>
</linearGradient>
</defs>
</svg>
