<svg width="393" height="477" viewBox="0 0 393 477" fill="none" xmlns="http://www.w3.org/2000/svg">
<g filter="url(#filter0_d_41_134)">
<path d="M251.13 273.436C243.045 296.956 255.149 322.978 278.348 331.966C287.884 335.662 297.875 336.01 307.028 333.597C313.187 331.976 318.604 338.021 316.388 343.987L293.646 405.208C285.026 428.411 259.216 440.238 235.999 431.613L174.749 408.86C168.781 406.643 162.735 412.057 164.358 418.215C166.777 427.361 166.429 437.336 162.742 446.865C153.771 470.067 127.743 482.177 104.208 474.093C79.3566 465.561 66.5488 438.301 75.6421 413.822C79.1152 404.472 85.2682 396.9 92.9139 391.658C98.1597 388.063 97.1028 380.017 91.1344 377.8L29.895 355.051C6.67765 346.426 -5.15704 320.616 3.46621 297.402L26.2044 236.191C28.4226 230.22 36.4702 229.183 40.0774 234.432C45.4315 242.228 53.2168 248.483 62.84 251.911C86.2758 260.264 112.444 248.47 121.691 225.382C131.456 200.994 119.159 173.483 94.6708 164.386C85.3178 160.912 75.5601 160.632 66.5955 162.998C60.4466 164.623 55.0407 158.565 57.255 152.604L79.9951 91.3877C88.6164 68.1793 114.432 56.3545 137.649 64.9791L198.889 87.7279C204.862 89.947 210.907 84.5332 209.284 78.3753C206.866 69.2123 207.213 59.2246 210.91 49.6822C219.913 26.492 245.953 14.4097 269.481 22.5149C294.306 31.0722 307.086 58.3102 298 82.7687C294.527 92.1182 288.374 99.6903 280.731 104.928C275.483 108.527 276.545 116.575 282.508 118.79L343.753 141.541C366.97 150.166 378.802 175.97 370.18 199.178L347.438 260.399C345.224 266.36 337.174 267.42 333.572 262.173C328.331 254.53 320.757 248.372 311.404 244.897C286.926 235.804 259.661 248.601 251.13 273.436Z" fill="url(#paint0_linear_41_134)"/>
<path d="M107.455 464.635L107.456 464.635C125.909 470.974 146.382 461.446 153.415 443.258L153.416 443.256C156.319 435.754 156.586 427.939 154.691 420.771L154.688 420.763C150.968 406.648 164.787 394.492 178.231 399.486L239.481 422.239C257.523 428.941 277.576 419.749 284.271 401.726L305.659 344.151C295.988 345.978 285.71 345.304 275.821 341.699L274.736 341.291C246.531 330.363 231.841 298.792 241.672 270.187C252.036 240.021 285.157 224.48 314.886 235.523C324.88 239.236 333.218 245.488 339.417 253.273L360.806 195.696C367.503 177.668 358.314 157.618 340.27 150.915L279.026 128.164C265.631 123.188 262.998 104.965 275.074 96.681L275.079 96.6784C281.07 92.5729 285.894 86.6432 288.627 79.286C295.76 60.0825 285.728 38.6938 266.224 31.9696L266.224 31.9699C247.776 25.6146 227.29 35.1202 220.232 53.3012C217.324 60.8112 217.056 68.6358 218.953 75.8239L218.954 75.8264C222.676 89.9482 208.85 102.096 195.407 97.1018L134.167 74.353C116.124 67.6503 96.0659 76.8425 89.3691 94.8704L67.9832 152.441C77.7628 150.593 88.1592 151.3 98.1526 155.013C127.894 166.061 142.836 199.476 130.975 229.099L130.974 229.1C119.728 257.18 87.9756 271.485 59.4835 261.33L59.4844 261.331C49.1697 257.656 40.575 251.29 34.2242 243.319L12.8404 300.884C6.14136 318.918 15.3347 338.974 33.3775 345.677L94.6168 368.426C107.805 373.325 110.564 391.061 99.1219 399.511L98.5665 399.907C92.5712 404.019 87.7483 409.948 85.0159 417.304C77.8754 436.526 87.9318 457.932 107.455 464.635Z" stroke="white" stroke-width="20"/>
</g>
<defs>
<filter id="filter0_d_41_134" x="0.64856" y="-0.00469971" width="392.349" height="476.603" filterUnits="userSpaceOnUse" color-interpolation-filters="sRGB">
<feFlood flood-opacity="0" result="BackgroundImageFix"/>
<feColorMatrix in="SourceAlpha" type="matrix" values="0 0 0 0 0 0 0 0 0 0 0 0 0 0 0 0 0 0 127 0" result="hardAlpha"/>
<feOffset dx="12" dy="-12"/>
<feGaussianBlur stdDeviation="4"/>
<feComposite in2="hardAlpha" operator="out"/>
<feColorMatrix type="matrix" values="0 0 0 0 0 0 0 0 0 0 0 0 0 0 0 0 0 0 0.25 0"/>
<feBlend mode="normal" in2="BackgroundImageFix" result="effect1_dropShadow_41_134"/>
<feBlend mode="normal" in="SourceGraphic" in2="effect1_dropShadow_41_134" result="shape"/>
</filter>
<linearGradient id="paint0_linear_41_134" x1="41.7295" y1="194.398" x2="331.913" y2="302.194" gradientUnits="userSpaceOnUse">
<stop stop-color="#77797A"/>
<stop offset="0.306923" stop-color="#BAB9B7"/>
<stop offset="0.756389" stop-color="#787878"/>
<stop offset="1" stop-color="#919292"/>
</linearGradient>
</defs>
</svg>
