<svg width="620" height="620" viewBox="0 0 620 620" fill="none" xmlns="http://www.w3.org/2000/svg">
<g filter="url(#filter0_d_41_140)">
<path d="M599.983 298.576C600.76 331.316 574.456 358.101 541.902 358.101C529.458 358.101 517.931 354.189 508.48 347.534C501.992 342.962 493.042 347.699 493.042 355.633V437.11C493.042 467.993 468 493.039 437.11 493.039H355.625C347.679 493.039 342.963 501.998 347.538 508.488C354.337 518.147 358.268 529.973 358.094 542.719C357.667 573.753 332.489 599.226 301.461 599.982C268.704 600.786 241.898 574.475 241.898 541.901C241.898 529.457 245.809 517.927 252.469 508.474C257.041 501.991 252.307 493.039 244.37 493.039H162.894C132.004 493.039 106.963 467.993 106.963 437.11V355.626C106.963 347.679 98.0056 342.969 91.5087 347.541C81.8581 354.334 70.0446 358.266 57.3023 358.094C26.2715 357.682 0.800578 332.519 0.0188784 301.498C-0.806134 268.731 25.5159 241.898 58.097 241.898C70.5423 241.898 82.0719 245.81 91.5238 252.472C98.0118 257.044 106.963 252.307 106.963 244.373V162.896C106.963 132.006 132.007 106.96 162.901 106.96H244.368C252.305 106.96 257.039 98.0083 252.468 91.5182C245.809 82.0649 241.898 70.5422 241.898 58.0982C241.898 25.5445 268.685 -0.766742 301.426 0.0170222C332.454 0.759536 357.647 26.2113 358.093 57.2457C358.277 70.0059 354.343 81.8448 347.538 91.5043C342.964 98.0013 347.683 106.96 355.627 106.96H437.103C467.997 106.96 493.042 132.006 493.042 162.896V244.373C493.042 252.314 501.997 257.037 508.492 252.465C518.157 245.659 529.995 241.726 542.755 241.905C573.789 242.352 599.241 267.549 599.983 298.576Z" fill="url(#paint0_linear_41_140)"/>
<path d="M251.898 541.901C251.899 568.87 274.089 590.651 301.215 589.985H301.217C326.667 589.365 347.416 568.576 348.083 543.183L348.095 542.582C348.235 532.342 345.187 522.848 339.881 514.998L339.36 514.244C330.043 501.018 339.713 483.039 355.625 483.039H437.11C462.477 483.039 483.042 462.471 483.042 437.11V355.633C483.042 339.77 500.982 330.022 514.236 339.358L514.237 339.357C522.059 344.865 531.587 348.102 541.902 348.102C568.851 348.102 590.629 325.929 589.986 298.815C589.377 273.364 568.603 252.6 543.212 251.916L542.611 251.903C532.029 251.756 522.245 255.01 514.25 260.641L514.248 260.643L513.624 261.065C500.457 269.653 483.042 260.029 483.042 244.373V162.896C483.042 137.529 462.474 116.96 437.104 116.96H355.627C339.709 116.96 330.05 98.9748 339.36 85.748L339.363 85.7451C344.992 77.7557 348.246 67.9716 348.094 57.3896C347.725 31.7248 326.838 10.6276 301.187 10.0137C274.074 9.36464 251.898 31.1479 251.898 58.0986C251.899 68.0908 254.934 77.34 260.134 85.0215L260.644 85.7598C269.977 99.0109 260.242 116.96 244.368 116.96H162.901C137.53 116.96 116.963 137.529 116.963 162.896V244.373C116.963 260.238 99.018 269.986 85.7637 260.646L85.7627 260.646C77.9423 255.133 68.4135 251.897 58.0967 251.897C31.1243 251.898 9.33273 274.112 10.0156 301.246C10.6619 326.893 31.7756 347.755 57.4355 348.096H57.4375C68.0031 348.238 77.7668 344.984 85.7529 339.363H85.7539C98.9704 330.063 116.963 339.692 116.963 355.626V437.11C116.963 462.471 137.527 483.039 162.895 483.039H244.37C260.235 483.039 269.987 500.985 260.642 514.237H260.641C255.131 522.059 251.898 531.587 251.898 541.901Z" stroke="white" stroke-width="20"/>
</g>
<defs>
<filter id="filter0_d_41_140" x="0" y="-6.10352e-05" width="620" height="620" filterUnits="userSpaceOnUse" color-interpolation-filters="sRGB">
<feFlood flood-opacity="0" result="BackgroundImageFix"/>
<feColorMatrix in="SourceAlpha" type="matrix" values="0 0 0 0 0 0 0 0 0 0 0 0 0 0 0 0 0 0 127 0" result="hardAlpha"/>
<feOffset dx="12" dy="12"/>
<feGaussianBlur stdDeviation="4"/>
<feComposite in2="hardAlpha" operator="out"/>
<feColorMatrix type="matrix" values="0 0 0 0 0 0 0 0 0 0 0 0 0 0 0 0 0 0 0.25 0"/>
<feBlend mode="normal" in2="BackgroundImageFix" result="effect1_dropShadow_41_140"/>
<feBlend mode="normal" in="SourceGraphic" in2="effect1_dropShadow_41_140" result="shape"/>
</filter>
<linearGradient id="paint0_linear_41_140" x1="0" y1="300" x2="600" y2="300" gradientUnits="userSpaceOnUse">
<stop stop-color="#929393"/>
<stop offset="0.0123998" stop-color="#FF6C04"/>
<stop offset="0.202064" stop-color="#CBCBC8"/>
<stop offset="0.526731" stop-color="#909191"/>
<stop offset="0.826543" stop-color="#BAB9B7"/>
<stop offset="1" stop-color="#848586"/>
</linearGradient>
</defs>
</svg>
