<svg width="447" height="447" viewBox="0 0 447 447" fill="none" xmlns="http://www.w3.org/2000/svg">
<g filter="url(#filter0_d_41_136)">
<path d="M22.5392 115.695C30.3867 91.3061 56.4308 77.314 81.1034 84.2216C91.2467 87.0657 99.6977 92.9486 105.756 100.598C109.829 105.737 118.021 104.099 119.881 97.8072L138.945 33.3069C146.172 8.85327 171.859 -5.11426 196.316 2.11424L413.391 66.273C437.845 73.5007 451.81 99.1817 444.583 123.635L425.517 188.141C423.658 194.433 415.465 196.071 411.393 190.932C405.334 183.282 396.885 177.4 386.741 174.556C362.068 167.648 336.025 181.641 328.178 206.029C319.898 231.764 334.457 259.124 360.23 266.741C370.078 269.652 380.119 269.252 389.159 266.195C395.364 264.094 401.341 269.938 399.485 276.219L380.421 340.719C373.194 365.173 347.512 379.136 323.057 371.908L258.557 352.844C252.274 350.987 246.432 356.966 248.533 363.174C251.596 372.21 251.994 382.252 249.08 392.109C241.46 417.891 214.083 432.447 188.34 424.146C163.954 416.288 149.982 390.232 156.905 365.564C159.75 355.433 165.629 346.991 173.27 340.941C178.411 336.868 176.774 328.672 170.484 326.813L105.982 307.749C81.5253 300.521 67.5591 274.833 74.7866 250.38L93.8487 185.885C95.7051 179.604 89.7282 173.76 83.5222 175.861C74.4831 178.918 64.4422 179.318 54.5911 176.407C28.8202 168.79 14.264 141.431 22.5392 115.695Z" fill="url(#paint0_linear_41_136)"/>
<path d="M410.556 75.8627L193.481 11.7042C174.321 6.041 154.197 16.9844 148.535 36.1415L129.471 100.642C125.352 114.577 107.105 118.401 97.9184 106.809L97.9171 106.807C93.1264 100.758 86.4537 96.107 78.4076 93.8501L78.4073 93.851C59.2114 88.4768 38.9047 99.1448 32.3602 117.86L32.0583 118.758C25.5069 139.136 37.03 160.788 57.4252 166.816C64.9911 169.052 72.6717 168.824 79.6462 166.609L80.3182 166.389C94.3638 161.636 107.543 174.834 103.439 188.719L84.3769 253.214C78.7148 272.371 89.6559 292.496 108.817 298.159L173.318 317.223C187.258 321.343 191.071 339.597 179.479 348.779L179.478 348.78C173.625 353.414 169.081 359.815 166.752 367.518L166.533 368.267C161.06 387.765 172.142 408.42 191.408 414.628L191.409 414.629C211.793 421.202 233.459 409.68 239.49 389.275C241.801 381.458 241.483 373.527 239.062 366.384L239.061 366.379C234.309 352.338 247.497 339.148 261.392 343.254L325.891 362.318C345.05 367.98 365.169 357.041 370.831 337.885L388.911 276.714C378.908 279.417 368.048 279.479 357.395 276.33C326.249 267.125 308.654 234.06 318.659 202.966C328.152 173.459 359.593 156.57 389.437 164.926L389.441 164.927C400.439 168.011 409.809 174.069 416.912 181.976L434.993 120.801C440.655 101.644 429.714 81.5252 410.556 75.8627Z" stroke="white" stroke-width="20"/>
</g>
<defs>
<filter id="filter0_d_41_136" x="0.215332" y="0.208557" width="446.273" height="446.274" filterUnits="userSpaceOnUse" color-interpolation-filters="sRGB">
<feFlood flood-opacity="0" result="BackgroundImageFix"/>
<feColorMatrix in="SourceAlpha" type="matrix" values="0 0 0 0 0 0 0 0 0 0 0 0 0 0 0 0 0 0 127 0" result="hardAlpha"/>
<feOffset dx="-12" dy="12"/>
<feGaussianBlur stdDeviation="4"/>
<feComposite in2="hardAlpha" operator="out"/>
<feColorMatrix type="matrix" values="0 0 0 0 0 0 0 0 0 0 0 0 0 0 0 0 0 0 0.25 0"/>
<feBlend mode="normal" in2="BackgroundImageFix" result="effect1_dropShadow_41_136"/>
<feBlend mode="normal" in="SourceGraphic" in2="effect1_dropShadow_41_136" result="shape"/>
</filter>
<linearGradient id="paint0_linear_41_136" x1="9.67981" y1="159.155" x2="399.989" y2="274.514" gradientUnits="userSpaceOnUse">
<stop stop-color="#FF6C04"/>
<stop offset="0.908654" stop-color="#B5B5B5"/>
<stop offset="1" stop-color="#D7D6D4"/>
</linearGradient>
</defs>
</svg>
