<svg width="426" height="426" viewBox="0 0 426 426" fill="none" xmlns="http://www.w3.org/2000/svg">
<g filter="url(#filter0_d_41_138)">
<path d="M127.203 221.62C119.301 194.701 91.1825 178.654 63.9801 185.525C52.7966 188.354 43.3794 194.558 36.5315 202.762C31.9343 208.273 23.0089 206.251 21.1495 199.311L2.08693 128.169C-5.14014 101.197 10.8692 73.468 37.841 66.241L277.267 2.08689C304.239 -5.14018 331.968 10.8692 339.195 37.8409L358.258 108.983C360.117 115.923 353.398 122.137 346.656 119.665C336.637 115.986 325.391 115.319 314.302 118.451C287.304 126.084 270.954 154.033 277.553 181.302C284.514 210.089 313.759 227.339 342.202 219.718C353.067 216.806 362.219 210.693 368.916 202.67C373.508 197.162 382.43 199.197 384.288 206.131L403.351 277.273C410.578 304.245 394.573 331.966 367.601 339.193L296.453 358.258C289.513 360.117 283.299 353.398 285.773 346.662C289.454 336.629 290.118 325.372 286.975 314.266C279.318 287.274 251.364 270.952 224.1 277.569C195.33 284.544 178.108 313.776 185.724 342.2C188.636 353.066 194.743 362.219 202.77 368.909C208.281 373.506 206.239 382.43 199.311 384.287L128.163 403.351C101.191 410.578 73.4697 394.573 66.2426 367.601L47.1801 296.459C45.3239 289.531 52.0316 283.301 58.7681 285.774C68.5734 289.375 79.5557 290.094 90.4213 287.182C118.846 279.566 135.547 250.024 127.203 221.62Z" fill="url(#paint0_linear_41_138)"/>
<path d="M279.856 11.7461L40.4288 75.9003C18.792 81.6981 5.94872 103.943 11.7461 125.58L30.2711 194.717C38.2895 185.759 48.9876 179.003 61.5271 175.83L61.5308 175.829C93.9393 167.643 127.381 186.722 136.798 218.802C146.728 252.606 126.847 287.774 93.0097 296.841C80.8414 300.102 68.5239 299.534 57.3764 295.875L75.9019 365.013C81.6995 386.65 103.938 399.489 125.575 393.691L194.718 375.164C185.968 367.338 179.324 356.952 176.065 344.788C166.999 310.954 187.499 276.154 221.741 267.851C254.231 259.966 287.473 279.379 296.596 311.537L296.597 311.542C300.121 323.993 299.619 336.637 295.87 348.061L365.013 329.534C386.65 323.736 399.489 301.498 393.691 279.861L375.166 210.725C367.338 219.466 356.958 226.117 344.79 229.377C311.198 238.378 276.662 218.233 268.033 184.453L267.833 183.652C259.97 151.156 279.416 117.922 311.581 108.828L311.584 108.828C324.02 105.315 336.652 105.822 348.062 109.57L329.536 40.4288C323.738 18.792 301.493 5.94867 279.856 11.7461Z" stroke="white" stroke-width="20"/>
</g>
<defs>
<filter id="filter0_d_41_138" x="0.351807" y="0.351807" width="424.734" height="424.734" filterUnits="userSpaceOnUse" color-interpolation-filters="sRGB">
<feFlood flood-opacity="0" result="BackgroundImageFix"/>
<feColorMatrix in="SourceAlpha" type="matrix" values="0 0 0 0 0 0 0 0 0 0 0 0 0 0 0 0 0 0 127 0" result="hardAlpha"/>
<feOffset dx="12" dy="12"/>
<feGaussianBlur stdDeviation="4"/>
<feComposite in2="hardAlpha" operator="out"/>
<feColorMatrix type="matrix" values="0 0 0 0 0 0 0 0 0 0 0 0 0 0 0 0 0 0 0.25 0"/>
<feBlend mode="normal" in2="BackgroundImageFix" result="effect1_dropShadow_41_138"/>
<feBlend mode="normal" in="SourceGraphic" in2="effect1_dropShadow_41_138" result="shape"/>
</filter>
<linearGradient id="paint0_linear_41_138" x1="371.272" y1="157.554" x2="34.164" y2="247.882" gradientUnits="userSpaceOnUse">
<stop stop-color="#77797A"/>
<stop offset="0.306923" stop-color="#BAB9B7"/>
<stop offset="0.756389" stop-color="#707070"/>
<stop offset="1" stop-color="#919292"/>
</linearGradient>
</defs>
</svg>
